<?xml version="1.0" encoding="utf-8"?>
<!-- Generator: Adobe Illustrator 16.0.4, SVG Export Plug-In . SVG Version: 6.00 Build 0)  -->
<!DOCTYPE svg PUBLIC "-//W3C//DTD SVG 1.1//EN" "http://www.w3.org/Graphics/SVG/1.1/DTD/svg11.dtd">
<svg version="1.1" id="Layer_1" xmlns="http://www.w3.org/2000/svg" xmlns:xlink="http://www.w3.org/1999/xlink" x="0px" y="0px"
	 width="155.333px" height="100.667px" viewBox="0 0 155.333 100.667" enable-background="new 0 0 155.333 100.667"
	 xml:space="preserve">
<g>
	<path fill="#FFFFFF" stroke="#FFFFFF" stroke-miterlimit="10" d="M1654.655,115.841c-3.18,0-6.123-1.572-7.912-4.121
		c-1.791,2.549-4.732,4.121-7.914,4.121s-6.123-1.572-7.912-4.121c-1.791,2.549-4.732,4.121-7.916,4.121
		c-3.18,0-6.123-1.572-7.912-4.121c-1.791,2.549-4.732,4.121-7.916,4.121c-3.332,0-6.34-1.674-8.098-4.389
		c-1.785,2.562-4.729,4.139-7.932,4.139c-3.182,0-6.125-1.572-7.914-4.121c-1.791,2.549-4.732,4.121-7.912,4.121
		c-3.182,0-6.125-1.572-7.916-4.119c-1.789,2.547-4.732,4.119-7.912,4.119c-3.182,0-6.125-1.572-7.914-4.119
		c-1.791,2.547-4.734,4.119-7.914,4.119c-3.182,0-6.125-1.572-7.914-4.121c-1.789,2.549-4.732,4.121-7.914,4.121
		c-3.049,0-5.879-1.428-7.691-3.809c-1.822,2.114-4.459,3.34-7.303,3.34c-3.182,0-6.125-1.57-7.912-4.119
		c-1.789,2.549-4.732,4.119-7.914,4.119s-6.125-1.572-7.914-4.121c-1.789,2.549-4.73,4.121-7.912,4.121s-6.125-1.57-7.916-4.119
		c-1.789,2.549-4.732,4.119-7.914,4.119c-3.18,0-6.123-1.572-7.912-4.121c-1.789,2.549-4.732,4.121-7.914,4.121
		c-3.898,0-7.367-2.318-8.883-5.851c-0.381,0.045-0.762,0.067-1.145,0.067c-5.334,0-9.674-4.34-9.674-9.672
		c0-3.182,1.572-6.125,4.121-7.914c-2.549-1.791-4.121-4.731-4.121-7.912c0-3.182,1.572-6.125,4.121-7.916
		c-2.549-1.791-4.121-4.733-4.121-7.913c0-3.181,1.572-6.123,4.121-7.914c-2.549-1.789-4.121-4.731-4.121-7.913
		c0-3.181,1.572-6.124,4.123-7.913c-2.551-1.791-4.123-4.734-4.123-7.915c0-5.333,4.34-9.672,9.674-9.672
		c0.455,0,0.918,0.035,1.383,0.105c1.182-4.097,4.938-6.975,9.281-6.975c3.182,0,6.125,1.572,7.916,4.121
		c1.789-2.549,4.73-4.121,7.91-4.121c3.184,0,6.127,1.572,7.916,4.121c1.791-2.549,4.734-4.121,7.914-4.121
		c3.182,0,6.123,1.572,7.914,4.122c1.789-2.549,4.732-4.122,7.912-4.122c3.182,0,6.125,1.572,7.914,4.122
		c1.789-2.549,4.732-4.122,7.914-4.122c2.842,0,5.479,1.226,7.301,3.34c1.814-2.379,4.645-3.808,7.691-3.808
		c3.182,0,6.125,1.572,7.916,4.121c1.789-2.549,4.732-4.121,7.914-4.121c3.18,0,6.123,1.571,7.912,4.12
		c1.791-2.549,4.734-4.12,7.914-4.12c3.182,0,6.123,1.572,7.914,4.121c1.789-2.549,4.732-4.121,7.912-4.121
		c3.182,0,6.125,1.571,7.914,4.12c1.791-2.549,4.734-4.12,7.914-4.12c2.896,0,5.578,1.273,7.404,3.461
		c1.812-1.894,4.338-2.993,6.98-2.993c3.182,0,6.125,1.572,7.916,4.121c1.789-2.549,4.73-4.121,7.91-4.121
		c3.182,0,6.127,1.572,7.916,4.121c1.791-2.549,4.734-4.121,7.914-4.121s6.123,1.572,7.914,4.122
		c1.789-2.549,4.732-4.122,7.912-4.122c4.162,0,7.793,2.629,9.129,6.499c0.361-0.042,0.725-0.062,1.086-0.062
		c5.334,0,9.674,4.339,9.674,9.672c0,3.181-1.572,6.125-4.121,7.915c2.549,1.79,4.121,4.732,4.121,7.913s-1.57,6.125-4.119,7.916
		c2.549,1.789,4.119,4.732,4.119,7.914c0,3.18-1.572,6.123-4.121,7.912c2.549,1.791,4.121,4.734,4.121,7.914
		s-1.572,6.123-4.121,7.912c2.549,1.791,4.121,4.734,4.121,7.916c0,5.311-4.303,9.635-9.604,9.672
		C1662.735,112.972,1658.961,115.841,1654.655,115.841z"/>
	<g>
		<rect x="1442.653" y="27.531" fill="#004468" width="219.906" height="77.046"/>
		<g>
			<g>
				<g>
					<g>
						<circle fill="#004468" cx="1512.836" cy="105.449" r="8.673"/>
						<circle fill="#004468" cx="1497.01" cy="105.449" r="8.673"/>
						<circle fill="#004468" cx="1481.186" cy="105.449" r="8.673"/>
						<circle fill="#004468" cx="1465.356" cy="105.449" r="8.673"/>
						<circle fill="#004468" cx="1449.53" cy="105.449" r="8.673"/>
					</g>
					<g>
						<circle fill="#F0EFEE" cx="1513.772" cy="106.716" r="1.629"/>
						<circle fill="#F0EFEE" cx="1497.678" cy="106.716" r="1.629"/>
						<circle fill="#F0EFEE" cx="1481.59" cy="106.716" r="1.629"/>
						<circle fill="#F0EFEE" cx="1465.5" cy="106.716" r="1.629"/>
						<circle fill="#F0EFEE" cx="1449.411" cy="106.716" r="1.629"/>
					</g>
					<g>
						<circle fill="#004468" cx="1591.143" cy="105.918" r="8.673"/>
						<path fill="#004468" d="M1575.317,97.246c-4.791,0-8.676,3.883-8.676,8.674c0,4.789,3.885,8.672,8.676,8.672
							c4.787,0,8.67-3.883,8.67-8.672C1583.987,101.128,1580.104,97.246,1575.317,97.246z"/>
						<circle fill="#004468" cx="1559.489" cy="105.918" r="8.673"/>
						<circle fill="#004468" cx="1543.661" cy="105.918" r="8.673"/>
						<circle fill="#004468" cx="1527.833" cy="105.918" r="8.673"/>
					</g>
					<g>
						<circle fill="#F0EFEE" cx="1592.075" cy="107.184" r="1.63"/>
						<circle fill="#F0EFEE" cx="1575.983" cy="107.184" r="1.63"/>
						<circle fill="#F0EFEE" cx="1559.895" cy="107.184" r="1.63"/>
						<circle fill="#F0EFEE" cx="1543.803" cy="107.184" r="1.63"/>
						<circle fill="#F0EFEE" cx="1527.713" cy="107.184" r="1.63"/>
					</g>
				</g>
				<g>
					<g>
						<circle fill="#004468" cx="1654.655" cy="106.168" r="8.673"/>
						<circle fill="#004468" cx="1638.829" cy="106.168" r="8.673"/>
						<circle fill="#004468" cx="1623" cy="106.168" r="8.673"/>
						<circle fill="#004468" cx="1607.172" cy="106.168" r="8.673"/>
					</g>
					<g>
						<circle fill="#F0EFEE" cx="1655.325" cy="107.434" r="1.63"/>
						<circle fill="#F0EFEE" cx="1639.237" cy="107.434" r="1.63"/>
						<circle fill="#F0EFEE" cx="1623.145" cy="107.434" r="1.63"/>
						<circle fill="#F0EFEE" cx="1607.055" cy="107.434" r="1.63"/>
					</g>
				</g>
			</g>
			<g>
				<g>
					<path fill="#004468" d="M1513.477,38.162c-4.789,0-8.674-3.882-8.674-8.672c0-4.789,3.885-8.674,8.674-8.674
						c4.787,0,8.672,3.885,8.672,8.674C1522.149,34.28,1518.264,38.162,1513.477,38.162z"/>
					<circle fill="#004468" cx="1497.649" cy="29.489" r="8.673"/>
					<circle fill="#004468" cx="1481.823" cy="29.489" r="8.673"/>
					<path fill="#004468" d="M1465.993,38.162c-4.789,0-8.67-3.882-8.67-8.672c0-4.789,3.881-8.674,8.67-8.674
						c4.793,0,8.676,3.885,8.676,8.674C1474.668,34.28,1470.786,38.162,1465.993,38.162z"/>
					<circle fill="#004468" cx="1450.167" cy="29.489" r="8.673"/>
				</g>
				<g>
					<circle fill="#F0EFEE" cx="1514.409" cy="28.222" r="1.63"/>
					<circle fill="#F0EFEE" cx="1498.319" cy="28.222" r="1.63"/>
					<circle fill="#F0EFEE" cx="1482.229" cy="28.222" r="1.63"/>
					<circle fill="#F0EFEE" cx="1466.139" cy="28.222" r="1.63"/>
					<circle fill="#F0EFEE" cx="1450.049" cy="28.222" r="1.63"/>
				</g>
				<g>
					<circle fill="#004468" cx="1591.782" cy="29.02" r="8.672"/>
					<circle fill="#004468" cx="1575.954" cy="29.02" r="8.672"/>
					<circle fill="#004468" cx="1560.125" cy="29.02" r="8.672"/>
					<circle fill="#004468" cx="1544.299" cy="29.02" r="8.672"/>
					<circle fill="#004468" cx="1528.469" cy="29.02" r="8.672"/>
				</g>
				<g>
					<path fill="#F0EFEE" d="M1592.709,29.382c-0.895,0-1.625-0.729-1.625-1.629c0-0.898,0.73-1.627,1.625-1.627
						c0.904,0,1.633,0.729,1.633,1.627C1594.342,28.654,1593.616,29.382,1592.709,29.382z"/>
					<circle fill="#F0EFEE" cx="1576.624" cy="27.754" r="1.628"/>
					<circle fill="#F0EFEE" cx="1560.532" cy="27.754" r="1.628"/>
					<circle fill="#F0EFEE" cx="1544.444" cy="27.754" r="1.628"/>
					<circle fill="#F0EFEE" cx="1528.352" cy="27.754" r="1.628"/>
				</g>
			</g>
			<g>
				<g>
					<circle fill="#004468" cx="1653.649" cy="29.489" r="8.673"/>
					<circle fill="#004468" cx="1637.823" cy="29.489" r="8.673"/>
					<path fill="#004468" d="M1621.993,38.162c-4.789,0-8.67-3.882-8.67-8.672c0-4.789,3.881-8.674,8.67-8.674
						c4.793,0,8.676,3.885,8.676,8.674C1630.668,34.28,1626.786,38.162,1621.993,38.162z"/>
					<circle fill="#004468" cx="1606.167" cy="29.489" r="8.673"/>
				</g>
				<g>
					<circle fill="#F0EFEE" cx="1654.319" cy="28.222" r="1.63"/>
					<circle fill="#F0EFEE" cx="1638.229" cy="28.222" r="1.63"/>
					<circle fill="#F0EFEE" cx="1622.139" cy="28.222" r="1.63"/>
					<circle fill="#F0EFEE" cx="1606.049" cy="28.222" r="1.63"/>
				</g>
			</g>
			<g>
				<g>
					<path fill="#004468" d="M1655.192,99.235c0-4.789,3.881-8.674,8.672-8.674c4.789,0,8.674,3.885,8.674,8.674
						c0,4.787-3.885,8.673-8.674,8.673C1659.073,107.908,1655.192,104.022,1655.192,99.235z"/>
					<circle fill="#004468" cx="1663.866" cy="83.407" r="8.673"/>
					<circle fill="#004468" cx="1663.866" cy="67.581" r="8.673"/>
					<path fill="#004468" d="M1655.192,51.75c0-4.789,3.881-8.669,8.672-8.669c4.789,0,8.674,3.881,8.674,8.669
						c0,4.793-3.885,8.676-8.674,8.676C1659.073,60.427,1655.192,56.544,1655.192,51.75z"/>
					<circle fill="#004468" cx="1663.866" cy="35.924" r="8.673"/>
				</g>
				<g>
					<circle fill="#F0EFEE" cx="1665.131" cy="100.167" r="1.631"/>
					<circle fill="#F0EFEE" cx="1665.131" cy="84.077" r="1.631"/>
					<circle fill="#F0EFEE" cx="1665.131" cy="67.987" r="1.631"/>
					<circle fill="#F0EFEE" cx="1665.131" cy="51.897" r="1.631"/>
					<circle fill="#F0EFEE" cx="1665.131" cy="35.807" r="1.631"/>
				</g>
			</g>
			<g>
				<g>
					<path fill="#004468" d="M1448.174,36.358c0,4.789-3.881,8.674-8.672,8.674c-4.789,0-8.674-3.885-8.674-8.674
						c0-4.787,3.885-8.672,8.674-8.672C1444.293,27.686,1448.174,31.571,1448.174,36.358z"/>
					<circle fill="#004468" cx="1439.5" cy="52.186" r="8.673"/>
					<circle fill="#004468" cx="1439.5" cy="68.013" r="8.673"/>
					<path fill="#004468" d="M1448.174,83.843c0,4.789-3.881,8.67-8.672,8.67c-4.789,0-8.674-3.881-8.674-8.67
						c0-4.793,3.885-8.676,8.674-8.676C1444.293,75.167,1448.174,79.05,1448.174,83.843z"/>
					<circle fill="#004468" cx="1439.5" cy="99.668" r="8.673"/>
				</g>
				<g>
					<circle fill="#F0EFEE" cx="1438.235" cy="35.426" r="1.631"/>
					<circle fill="#F0EFEE" cx="1438.235" cy="51.516" r="1.631"/>
					<circle fill="#F0EFEE" cx="1438.235" cy="67.606" r="1.631"/>
					<circle fill="#F0EFEE" cx="1438.235" cy="83.696" r="1.631"/>
					<circle fill="#F0EFEE" cx="1438.235" cy="99.787" r="1.631"/>
				</g>
			</g>
		</g>
	</g>
</g>
<path fill="#FFFFFF" d="M131.659,100.667c-3.062,0-5.924-1.318-7.914-3.521c-1.992,2.201-4.854,3.521-7.914,3.521
	c-3.062,0-5.922-1.318-7.914-3.521c-1.992,2.201-4.854,3.521-7.914,3.521c-2.969,0-5.75-1.228-7.736-3.319
	c-1.946,1.817-4.516,2.853-7.258,2.853c-3.062,0-5.922-1.318-7.914-3.521c-1.992,2.203-4.853,3.521-7.913,3.521
	c-3.062,0-5.923-1.318-7.914-3.521c-1.991,2.203-4.852,3.521-7.912,3.521c-3.062,0-5.924-1.318-7.916-3.521
	c-1.992,2.203-4.854,3.521-7.914,3.521s-5.921-1.318-7.912-3.521c-1.991,2.203-4.853,3.521-7.914,3.521
	c-4.204,0-7.977-2.488-9.693-6.222c-0.111,0.003-0.223,0.005-0.333,0.005C5.788,93.984,1,89.197,1,83.312
	c0-3.061,1.318-5.922,3.521-7.914C2.319,73.407,1,70.546,1,67.486s1.318-5.924,3.521-7.916C2.319,57.58,1,54.716,1,51.656
	c0-3.06,1.319-5.921,3.521-7.912C2.319,41.752,1,38.89,1,35.83s1.319-5.922,3.521-7.912C2.319,25.926,1,23.064,1,20.002
	C1,14.118,5.788,9.33,11.674,9.33c0.283,0,0.568,0.013,0.854,0.037c1.648-3.889,5.453-6.473,9.81-6.473
	c3.061,0,5.923,1.318,7.915,3.521c1.99-2.202,4.852-3.521,7.911-3.521c3.062,0,5.924,1.318,7.916,3.521
	c1.992-2.202,4.854-3.521,7.914-3.521c3.06,0,5.922,1.318,7.913,3.521c1.991-2.202,4.853-3.521,7.913-3.521s5.922,1.318,7.913,3.521
	c1.992-2.203,4.854-3.521,7.915-3.521c2.741,0,5.31,1.033,7.257,2.852c1.986-2.093,4.768-3.32,7.735-3.32
	c3.062,0,5.923,1.319,7.915,3.521c1.992-2.202,4.854-3.521,7.914-3.521s5.922,1.318,7.912,3.521
	c1.992-2.202,4.854-3.521,7.914-3.521c4.49,0,8.443,2.818,9.985,6.908c5.772,0.131,10.427,4.867,10.427,10.668
	c0,3.062-1.317,5.923-3.521,7.915c2.202,1.991,3.521,4.852,3.521,7.911c0,3.062-1.317,5.924-3.521,7.916
	c2.203,1.992,3.521,4.854,3.521,7.914c0,3.061-1.318,5.922-3.521,7.914c2.202,1.991,3.521,4.854,3.521,7.912
	c0,3.061-1.318,5.922-3.521,7.914c2.202,1.992,3.521,4.854,3.521,7.914c0,5.885-4.787,10.672-10.674,10.672
	c-0.156,0-0.314-0.004-0.472-0.01C139.961,97.942,136.051,100.667,131.659,100.667z"/>
<rect x="14.999" y="11.607" fill="#004468" width="124.397" height="77.047"/>
<g>
	<g>
		<path fill="#FFFFFF" d="M26.103,52.309V25.59h8.554c3.451,0,6.092,0.863,7.923,2.588c1.83,1.726,2.746,4.03,2.746,6.912
			c0,1.893-0.402,3.538-1.206,4.936c-0.805,1.398-2.022,2.48-3.655,3.247l6.847,9.036h-5.511l-5.659-7.867
			c-0.768,0.074-1.565,0.111-2.394,0.111h-2.932v7.756H26.103z M30.816,40.378h3.488c2.078,0,3.587-0.482,4.527-1.447
			c0.939-0.965,1.41-2.245,1.41-3.841c0-3.438-1.979-5.158-5.938-5.158h-3.488L30.816,40.378L30.816,40.378z"/>
		<path fill="#FFFFFF" d="M53.723,50.201l1.633-4.259c1.11,0.756,2.297,1.344,3.562,1.765c1.264,0.421,2.488,0.631,3.672,0.631
			c1.5,0,2.645-0.316,3.432-0.947c0.787-0.631,1.181-1.405,1.181-2.322c0-0.631-0.149-1.169-0.446-1.615
			c-0.298-0.446-0.871-0.914-1.721-1.402c-0.849-0.489-2.073-1.031-3.673-1.625c-2.506-0.916-4.294-1.99-5.361-3.222
			S54.4,34.521,54.4,32.85c0-1.01,0.203-1.977,0.61-2.9c0.407-0.923,0.983-1.743,1.729-2.457c0.746-0.714,1.689-1.284,2.83-1.708
			c1.141-0.425,2.402-0.638,3.783-0.638c1.357,0,2.696,0.172,4.017,0.515c1.321,0.343,2.431,0.772,3.331,1.287l-1.51,4.156
			c-2.125-1.189-4.108-1.783-5.949-1.783c-1.353,0-2.378,0.322-3.078,0.966c-0.7,0.644-1.051,1.461-1.051,2.452
			c0,0.842,0.394,1.573,1.181,2.191c0.787,0.62,2.136,1.275,4.045,1.969c1.488,0.582,2.727,1.17,3.716,1.764
			c0.989,0.595,1.772,1.226,2.351,1.895c0.577,0.668,0.985,1.362,1.226,2.08c0.239,0.718,0.359,1.529,0.359,2.433
			c0,2.382-0.849,4.261-2.544,5.638c-1.696,1.377-4.031,2.065-7.004,2.065c-1.518,0-3.031-0.232-4.542-0.699
			C56.389,51.608,54.997,50.984,53.723,50.201z"/>
		<path fill="#FFFFFF" d="M77.167,25.59h5.047l8.164,18.239l8.219-18.239h4.938L91.137,52.643h-1.596L77.167,25.59z"/>
		<path fill="#FFFFFF" d="M111.232,52.309V25.59h8.155c3.447,0,6.09,0.863,7.925,2.588c1.835,1.725,2.753,4.03,2.753,6.912
			c0,2.919-0.961,5.227-2.882,6.921c-1.921,1.695-4.82,2.542-8.7,2.542h-2.538v7.756H111.232z M115.945,40.378h3.117
			c2.078,0,3.584-0.482,4.519-1.447c0.935-0.965,1.4-2.245,1.4-3.841c0-3.438-1.975-5.158-5.919-5.158h-3.117V40.378z"/>
	</g>
</g>
<g>
	<g>
		<circle fill="#004468" cx="85.183" cy="89.526" r="8.673"/>
		<circle fill="#004468" cx="69.357" cy="89.526" r="8.673"/>
		<circle fill="#004468" cx="53.531" cy="89.526" r="8.673"/>
		<circle fill="#004468" cx="37.701" cy="89.526" r="8.673"/>
		<circle fill="#004468" cx="21.875" cy="89.526" r="8.673"/>
	</g>
	<g>
		<circle fill="#F0EFEE" cx="86.118" cy="90.792" r="1.629"/>
		<circle fill="#F0EFEE" cx="70.025" cy="90.792" r="1.629"/>
		<circle fill="#F0EFEE" cx="53.937" cy="90.792" r="1.629"/>
		<circle fill="#F0EFEE" cx="37.847" cy="90.792" r="1.629"/>
		<circle fill="#F0EFEE" cx="21.755" cy="90.792" r="1.629"/>
	</g>
	<g>
		<circle fill="#004468" cx="131.834" cy="89.994" r="8.673"/>
		<circle fill="#004468" cx="116.004" cy="89.994" r="8.673"/>
		<circle fill="#004468" cx="100.176" cy="89.994" r="8.673"/>
	</g>
	<g>
		<circle fill="#F0EFEE" cx="132.241" cy="91.26" r="1.629"/>
		<circle fill="#F0EFEE" cx="116.15" cy="91.26" r="1.629"/>
		<circle fill="#F0EFEE" cx="100.06" cy="91.26" r="1.629"/>
	</g>
</g>
<g>
	<g>
		<path fill="#004468" d="M85.823,22.238c-4.789,0-8.674-3.882-8.674-8.672c0-4.789,3.885-8.674,8.674-8.674
			c4.787,0,8.672,3.885,8.672,8.674C94.495,18.356,90.61,22.238,85.823,22.238z"/>
		<circle fill="#004468" cx="69.995" cy="13.565" r="8.673"/>
		<circle fill="#004468" cx="54.169" cy="13.565" r="8.673"/>
		<path fill="#004468" d="M38.338,22.238c-4.789,0-8.67-3.882-8.67-8.672c0-4.789,3.881-8.674,8.67-8.674
			c4.793,0,8.676,3.885,8.676,8.674C47.014,18.356,43.131,22.238,38.338,22.238z"/>
		<circle fill="#004468" cx="22.512" cy="13.565" r="8.673"/>
	</g>
	<g>
		<circle fill="#F0EFEE" cx="86.754" cy="12.298" r="1.63"/>
		<circle fill="#F0EFEE" cx="70.665" cy="12.298" r="1.63"/>
		<circle fill="#F0EFEE" cx="54.575" cy="12.298" r="1.63"/>
		<circle fill="#F0EFEE" cx="38.485" cy="12.298" r="1.63"/>
		<circle fill="#F0EFEE" cx="22.395" cy="12.298" r="1.63"/>
	</g>
	<g>
		<circle fill="#004468" cx="132.471" cy="13.097" r="8.672"/>
		<circle fill="#004468" cx="116.645" cy="13.097" r="8.672"/>
		<circle fill="#004468" cx="100.815" cy="13.097" r="8.672"/>
	</g>
	<g>
		<circle fill="#F0EFEE" cx="132.877" cy="11.831" r="1.628"/>
		<circle fill="#F0EFEE" cx="116.79" cy="11.831" r="1.628"/>
		<circle fill="#F0EFEE" cx="100.698" cy="11.831" r="1.628"/>
	</g>
</g>
<g>
	<g>
		<path fill="#004468" d="M133.538,83.312c0-4.789,3.881-8.674,8.672-8.674c4.789,0,8.674,3.885,8.674,8.674
			c0,4.787-3.885,8.672-8.674,8.672C137.418,91.983,133.538,88.099,133.538,83.312z"/>
		<circle fill="#004468" cx="142.209" cy="67.483" r="8.673"/>
		<circle fill="#004468" cx="142.209" cy="51.657" r="8.673"/>
		<path fill="#004468" d="M133.538,35.827c0-4.789,3.881-8.67,8.672-8.67c4.789,0,8.674,3.881,8.674,8.67
			c0,4.793-3.885,8.676-8.674,8.676C137.418,44.503,133.538,40.62,133.538,35.827z"/>
		<circle fill="#004468" cx="142.209" cy="20.001" r="8.673"/>
	</g>
	<g>
		<circle fill="#F0EFEE" cx="143.477" cy="84.243" r="1.631"/>
		<circle fill="#F0EFEE" cx="143.477" cy="68.153" r="1.631"/>
		<circle fill="#F0EFEE" cx="143.477" cy="52.064" r="1.631"/>
		<circle fill="#F0EFEE" cx="143.477" cy="35.974" r="1.631"/>
		<circle fill="#F0EFEE" cx="143.477" cy="19.884" r="1.631"/>
	</g>
</g>
<g>
	<g>
		<path fill="#004468" d="M20.52,20.001c0,4.789-3.881,8.674-8.672,8.674c-4.789,0-8.674-3.885-8.674-8.674
			c0-4.787,3.885-8.672,8.674-8.672C16.639,11.329,20.52,15.214,20.52,20.001z"/>
		<circle fill="#004468" cx="11.847" cy="35.829" r="8.673"/>
		<circle fill="#004468" cx="11.847" cy="51.655" r="8.673"/>
		<path fill="#004468" d="M20.52,67.485c0,4.789-3.881,8.67-8.672,8.67c-4.789,0-8.674-3.881-8.674-8.67
			c0-4.793,3.885-8.676,8.674-8.676C16.639,58.81,20.52,62.692,20.52,67.485z"/>
		<circle fill="#004468" cx="11.847" cy="83.312" r="8.673"/>
	</g>
	<g>
		<circle fill="#F0EFEE" cx="10.581" cy="19.069" r="1.631"/>
		<circle fill="#F0EFEE" cx="10.581" cy="35.159" r="1.631"/>
		<circle fill="#F0EFEE" cx="10.581" cy="51.249" r="1.631"/>
		<circle fill="#F0EFEE" cx="10.581" cy="67.339" r="1.631"/>
		<circle fill="#F0EFEE" cx="10.581" cy="83.429" r="1.631"/>
	</g>
</g>
<g>
	<path fill="#FFFFFF" d="M125.37,77.666c0.573,0,0.995-0.138,1.266-0.412c0.27-0.275,0.404-0.75,0.404-1.426v-2.902
		c0-0.598,0.088-1.041,0.264-1.326c0.176-0.287,0.521-0.553,1.037-0.797c-0.516-0.24-0.861-0.502-1.037-0.785
		s-0.264-0.717-0.264-1.301v-2.865c0-0.648-0.136-1.107-0.404-1.377c-0.27-0.27-0.691-0.404-1.266-0.404v-1.6
		c1.106,0,1.95,0.275,2.53,0.83c0.58,0.553,0.87,1.345,0.87,2.377v3.16c0,0.399,0.08,0.692,0.242,0.879
		c0.16,0.185,0.451,0.277,0.873,0.277h0.414v1.6h-0.414c-0.422,0-0.713,0.095-0.873,0.283c-0.162,0.189-0.242,0.488-0.242,0.896
		v3.26c0,1.045-0.289,1.846-0.865,2.4c-0.578,0.555-1.423,0.832-2.535,0.832V77.666z"/>
</g>
<g>
	<path fill="#FFFFFF" d="M24.5,71.593v-1.6h0.413c0.422,0,0.713-0.093,0.874-0.277c0.161-0.186,0.242-0.479,0.242-0.877v-3.162
		c0-1.031,0.291-1.824,0.875-2.377c0.582-0.553,1.425-0.83,2.526-0.83v1.6c-0.574,0-0.993,0.135-1.257,0.4
		c-0.264,0.266-0.396,0.727-0.396,1.381v2.865c0,0.578-0.091,1.012-0.272,1.297c-0.182,0.285-0.53,0.549-1.046,0.791
		c0.516,0.242,0.864,0.509,1.046,0.795c0.182,0.287,0.272,0.729,0.272,1.326v2.904c0,0.674,0.132,1.148,0.396,1.424
		c0.264,0.274,0.683,0.414,1.257,0.414v1.6c-1.102,0-1.944-0.277-2.526-0.832c-0.584-0.557-0.875-1.355-0.875-2.402v-3.258
		c0-0.408-0.081-0.707-0.242-0.896c-0.161-0.188-0.452-0.285-0.874-0.285H24.5L24.5,71.593z"/>
</g>
<g>
	<path fill="#FFFFFF" d="M33.262,70.816c0-0.646,0.131-1.264,0.394-1.85c0.262-0.584,0.614-1.086,1.054-1.504
		c0.44-0.42,0.964-0.752,1.571-0.998s1.243-0.369,1.908-0.369c0.373,0,0.738,0.025,1.098,0.076c0.36,0.052,0.662,0.113,0.908,0.186
		c0.246,0.072,0.463,0.145,0.654,0.216c0.191,0.072,0.332,0.134,0.425,0.185l0.14,0.076l-0.559,1.385
		c-0.089-0.047-0.211-0.104-0.368-0.168c-0.157-0.066-0.445-0.154-0.867-0.268c-0.421-0.111-0.807-0.169-1.158-0.169
		c-1.058,0-1.899,0.3-2.523,0.897c-0.624,0.601-0.936,1.378-0.936,2.33c0,0.918,0.313,1.681,0.939,2.283
		c0.626,0.604,1.414,0.906,2.361,0.906c0.457,0,0.907-0.053,1.349-0.156s0.769-0.207,0.98-0.309l0.324-0.158l0.495,1.375
		c-0.034,0.021-0.081,0.049-0.14,0.082s-0.19,0.096-0.394,0.184c-0.203,0.088-0.415,0.166-0.635,0.234
		c-0.22,0.066-0.5,0.127-0.841,0.184c-0.34,0.055-0.684,0.082-1.031,0.082c-0.757,0-1.459-0.121-2.104-0.361
		c-0.645-0.241-1.189-0.57-1.631-0.988c-0.442-0.421-0.789-0.921-1.038-1.505S33.262,71.485,33.262,70.816z"/>
	<path fill="#FFFFFF" d="M44.504,75.39V66.25h1.612v7.655h4.329v1.484L44.504,75.39L44.504,75.39z"/>
	<path fill="#FFFFFF" d="M53.067,75.39V66.25h1.612v9.141H53.067z"/>
	<path fill="#FFFFFF" d="M57.872,70.816c0-0.646,0.131-1.264,0.394-1.85c0.262-0.584,0.614-1.086,1.054-1.504
		c0.44-0.42,0.964-0.752,1.571-0.998s1.243-0.369,1.907-0.369c0.373,0,0.738,0.025,1.098,0.076c0.36,0.052,0.662,0.113,0.908,0.186
		c0.246,0.072,0.463,0.145,0.654,0.216c0.191,0.072,0.332,0.134,0.425,0.185l0.14,0.076l-0.559,1.385
		c-0.089-0.047-0.211-0.104-0.368-0.168c-0.157-0.066-0.445-0.154-0.866-0.268c-0.421-0.111-0.808-0.169-1.159-0.169
		c-1.058,0-1.899,0.3-2.523,0.897c-0.625,0.601-0.937,1.378-0.937,2.33c0,0.918,0.313,1.681,0.939,2.283
		c0.626,0.604,1.414,0.906,2.361,0.906c0.457,0,0.907-0.053,1.349-0.156c0.442-0.104,0.77-0.207,0.981-0.309l0.324-0.158
		l0.495,1.375c-0.034,0.021-0.081,0.049-0.14,0.082s-0.19,0.096-0.394,0.184c-0.203,0.088-0.415,0.166-0.635,0.234
		c-0.22,0.066-0.5,0.127-0.841,0.184c-0.341,0.055-0.685,0.082-1.032,0.082c-0.757,0-1.459-0.121-2.104-0.361
		c-0.646-0.241-1.189-0.57-1.632-0.988c-0.442-0.421-0.788-0.921-1.038-1.505S57.872,71.485,57.872,70.816z"/>
	<path fill="#FFFFFF" d="M69.114,75.39V66.25h1.612v4.476l3.885-4.476h1.968l-4.215,4.812l4.418,4.328H74.77l-4.043-3.91v3.91
		H69.114z"/>
	<path fill="#FFFFFF" d="M84.653,75.39V66.25h1.612v4.106h4.456v-4.095h1.611v9.128h-1.611v-3.604h-4.456v3.604L84.653,75.39
		L84.653,75.39z"/>
	<path fill="#FFFFFF" d="M96.129,75.39V66.25h5.94v1.485h-4.329v2.558h3.924v1.43h-3.924v2.184h4.329v1.484H96.129z"/>
	<path fill="#FFFFFF" d="M105.499,75.39V66.25h2.928c1.18,0,2.084,0.295,2.709,0.885c0.627,0.592,0.939,1.38,0.939,2.365
		c0,0.647-0.138,1.211-0.412,1.688c-0.275,0.478-0.691,0.849-1.25,1.11l2.342,3.091h-1.885l-1.937-2.691
		c-0.263,0.025-0.535,0.039-0.819,0.039h-1.003v2.652L105.499,75.39L105.499,75.39z M107.111,71.309h1.192
		c0.712,0,1.228-0.165,1.55-0.495c0.321-0.33,0.481-0.768,0.481-1.314c0-1.176-0.678-1.764-2.031-1.764h-1.192V71.309z"/>
	<path fill="#FFFFFF" d="M115.624,75.39V66.25h5.94v1.485h-4.328v2.558h3.923v1.43h-3.923v2.184h4.328v1.484H115.624z"/>
</g>
</svg>
